<svg xmlns="http://www.w3.org/2000/svg" width="256" height="256" viewBox="0 0 256 256" role="img" aria-labelledby="title desc">
  <title id="title">Quizzing App Logo</title>
  <desc id="desc">Rounded square with gradient, a timer ring, a stylized Q letter, and a check badge.</desc>
  <defs>
    <linearGradient id="g1" x1="0%" y1="0%" x2="100%" y2="100%">
      <stop offset="0%" stop-color="#41D1FF"/>
      <stop offset="100%" stop-color="#BD34FE"/>
    </linearGradient>
    <linearGradient id="g2" x1="0%" y1="0%" x2="0%" y2="100%">
      <stop offset="0%" stop-color="#FFEA83"/>
      <stop offset="50%" stop-color="#FFDD35"/>
      <stop offset="100%" stop-color="#FFA800"/>
    </linearGradient>
    <filter id="soft" x="-20%" y="-20%" width="140%" height="140%">
      <feDropShadow dx="0" dy="4" stdDeviation="6" flood-opacity=".18"/>
    </filter>
  </defs>

  <!-- rounded background -->
  <rect x="8" y="8" width="240" height="240" rx="40" fill="url(#g1)"/>

  <!-- subtle inner panel -->
  <rect x="28" y="28" width="200" height="200" rx="28" fill="rgba(255,255,255,0.08)" />

  <!-- timer ring -->
  <circle cx="128" cy="118" r="70" fill="none" stroke="white" stroke-opacity=".35" stroke-width="10"/>
  <!-- progress arc (≈ 65%) -->
  <path d="M128 48
           A70 70 0 0 1 193 103
           A70 70 0 0 1 176 171"
        fill="none" stroke="url(#g2)" stroke-width="12" stroke-linecap="round" filter="url(#soft)"/>

  <!-- stylized Q (circle + tail) -->
  <circle cx="128" cy="118" r="42" fill="white" opacity="0.95"/>
  <circle cx="128" cy="118" r="28" fill="url(#g1)"/>
  <path d="M152 140 L170 158" stroke="white" stroke-width="10" stroke-linecap="round" />

  <!-- check badge -->
  <g transform="translate(168,64)" filter="url(#soft)">
    <circle cx="0" cy="0" r="18" fill="white"/>
    <path d="M-7 -1 L-1 6 L10 -8" fill="none" stroke="url(#g2)" stroke-width="5" stroke-linecap="round" stroke-linejoin="round"/>
  </g>

  <!-- small sparkle -->
  <g transform="translate(72,70)">
    <circle cx="0" cy="0" r="2.5" fill="white" opacity="0.9"/>
    <circle cx="20" cy="-10" r="1.8" fill="white" opacity="0.6"/>
  </g>
</svg>
